%FSLAX45Y45*%
G04 Gerber Fmt 4.5, Leading zero omitted, Abs format (unit mm)*
G04 Created by KiCad (PCBNEW (5.1.7)-1) date 2022-11-01 20:21:28*
%MOMM*%
%LPD*%
G01*
G04 APERTURE LIST*
%TA.AperFunction,Profile*%
%ADD10C,0.050000*%
%TD*%
%ADD11C,0.200000*%
%ADD12C,0.300000*%
G04 APERTURE END LIST*
D10*
X13000000Y-8300000D02*
X13000000Y-6700000D01*
X15700000Y-8300000D02*
X13000000Y-8300000D01*
X15700000Y-6700000D02*
X15700000Y-8300000D01*
X13000000Y-6700000D02*
X15700000Y-6700000D01*
D11*
X13635000Y-6905000D02*
X13705000Y-6975000D01*
X13705000Y-6905000D02*
X13635000Y-6975000D01*
X13762000Y-6905000D02*
X13832000Y-6975000D01*
X13832000Y-6905000D02*
X13762000Y-6975000D01*
X13889000Y-6905000D02*
X13959000Y-6975000D01*
X13959000Y-6905000D02*
X13889000Y-6975000D01*
X14016000Y-6905000D02*
X14086000Y-6975000D01*
X14086000Y-6905000D02*
X14016000Y-6975000D01*
X14143000Y-6905000D02*
X14213000Y-6975000D01*
X14213000Y-6905000D02*
X14143000Y-6975000D01*
X14270000Y-6905000D02*
X14340000Y-6975000D01*
X14340000Y-6905000D02*
X14270000Y-6975000D01*
X13290000Y-6900000D02*
G75*
G03*
X13290000Y-6900000I-50000J0D01*
G01*
X13300000Y-8050000D02*
G75*
G03*
X13300000Y-8050000I-50000J0D01*
G01*
X13554000Y-8050000D02*
G75*
G03*
X13554000Y-8050000I-50000J0D01*
G01*
X15290000Y-8050000D02*
G75*
G03*
X15290000Y-8050000I-50000J0D01*
G01*
X15544000Y-8050000D02*
G75*
G03*
X15544000Y-8050000I-50000J0D01*
G01*
X15570000Y-7286000D02*
G75*
G03*
X15570000Y-7286000I-50000J0D01*
G01*
X15570000Y-7540000D02*
G75*
G03*
X15570000Y-7540000I-50000J0D01*
G01*
X15570000Y-6900000D02*
G75*
G03*
X15570000Y-6900000I-50000J0D01*
G01*
X13698150Y-7169010D02*
X13698150Y-7279010D01*
X13643150Y-7224010D02*
X13753150Y-7224010D01*
X14686820Y-7736290D02*
X14686820Y-7846290D01*
X14631820Y-7791290D02*
X14741820Y-7791290D01*
D12*
X13283928Y-8768214D02*
X13283928Y-8468214D01*
X13355357Y-8468214D01*
X13398214Y-8482500D01*
X13426786Y-8511072D01*
X13441071Y-8539643D01*
X13455357Y-8596786D01*
X13455357Y-8639643D01*
X13441071Y-8696786D01*
X13426786Y-8725357D01*
X13398214Y-8753929D01*
X13355357Y-8768214D01*
X13283928Y-8768214D01*
X13583928Y-8768214D02*
X13583928Y-8568214D01*
X13583928Y-8625357D02*
X13598214Y-8596786D01*
X13612500Y-8582500D01*
X13641071Y-8568214D01*
X13669643Y-8568214D01*
X13769643Y-8768214D02*
X13769643Y-8568214D01*
X13769643Y-8468214D02*
X13755357Y-8482500D01*
X13769643Y-8496786D01*
X13783928Y-8482500D01*
X13769643Y-8468214D01*
X13769643Y-8496786D01*
X13955357Y-8768214D02*
X13926786Y-8753929D01*
X13912500Y-8725357D01*
X13912500Y-8468214D01*
X14112500Y-8768214D02*
X14083928Y-8753929D01*
X14069643Y-8725357D01*
X14069643Y-8468214D01*
X14455357Y-8768214D02*
X14455357Y-8468214D01*
X14555357Y-8682500D01*
X14655357Y-8468214D01*
X14655357Y-8768214D01*
X14926786Y-8768214D02*
X14926786Y-8611072D01*
X14912500Y-8582500D01*
X14883928Y-8568214D01*
X14826786Y-8568214D01*
X14798214Y-8582500D01*
X14926786Y-8753929D02*
X14898214Y-8768214D01*
X14826786Y-8768214D01*
X14798214Y-8753929D01*
X14783928Y-8725357D01*
X14783928Y-8696786D01*
X14798214Y-8668214D01*
X14826786Y-8653929D01*
X14898214Y-8653929D01*
X14926786Y-8639643D01*
X15069643Y-8568214D02*
X15069643Y-8868214D01*
X15069643Y-8582500D02*
X15098214Y-8568214D01*
X15155357Y-8568214D01*
X15183928Y-8582500D01*
X15198214Y-8596786D01*
X15212500Y-8625357D01*
X15212500Y-8711072D01*
X15198214Y-8739643D01*
X15183928Y-8753929D01*
X15155357Y-8768214D01*
X15098214Y-8768214D01*
X15069643Y-8753929D01*
X15341071Y-8739643D02*
X15355357Y-8753929D01*
X15341071Y-8768214D01*
X15326786Y-8753929D01*
X15341071Y-8739643D01*
X15341071Y-8768214D01*
X15341071Y-8582500D02*
X15355357Y-8596786D01*
X15341071Y-8611072D01*
X15326786Y-8596786D01*
X15341071Y-8582500D01*
X15341071Y-8611072D01*
X12927500Y-9227500D02*
X12997500Y-9297500D01*
X12997500Y-9227500D02*
X12927500Y-9297500D01*
X13341071Y-9098214D02*
X13369643Y-9098214D01*
X13398214Y-9112500D01*
X13412500Y-9126786D01*
X13426786Y-9155357D01*
X13441071Y-9212500D01*
X13441071Y-9283929D01*
X13426786Y-9341072D01*
X13412500Y-9369643D01*
X13398214Y-9383929D01*
X13369643Y-9398214D01*
X13341071Y-9398214D01*
X13312500Y-9383929D01*
X13298214Y-9369643D01*
X13283928Y-9341072D01*
X13269643Y-9283929D01*
X13269643Y-9212500D01*
X13283928Y-9155357D01*
X13298214Y-9126786D01*
X13312500Y-9112500D01*
X13341071Y-9098214D01*
X13569643Y-9369643D02*
X13583928Y-9383929D01*
X13569643Y-9398214D01*
X13555357Y-9383929D01*
X13569643Y-9369643D01*
X13569643Y-9398214D01*
X13683928Y-9098214D02*
X13883928Y-9098214D01*
X13755357Y-9398214D01*
X14055357Y-9098214D02*
X14083928Y-9098214D01*
X14112500Y-9112500D01*
X14126786Y-9126786D01*
X14141071Y-9155357D01*
X14155357Y-9212500D01*
X14155357Y-9283929D01*
X14141071Y-9341072D01*
X14126786Y-9369643D01*
X14112500Y-9383929D01*
X14083928Y-9398214D01*
X14055357Y-9398214D01*
X14026786Y-9383929D01*
X14012500Y-9369643D01*
X13998214Y-9341072D01*
X13983928Y-9283929D01*
X13983928Y-9212500D01*
X13998214Y-9155357D01*
X14012500Y-9126786D01*
X14026786Y-9112500D01*
X14055357Y-9098214D01*
X14283928Y-9398214D02*
X14283928Y-9198214D01*
X14283928Y-9226786D02*
X14298214Y-9212500D01*
X14326786Y-9198214D01*
X14369643Y-9198214D01*
X14398214Y-9212500D01*
X14412500Y-9241072D01*
X14412500Y-9398214D01*
X14412500Y-9241072D02*
X14426786Y-9212500D01*
X14455357Y-9198214D01*
X14498214Y-9198214D01*
X14526786Y-9212500D01*
X14541071Y-9241072D01*
X14541071Y-9398214D01*
X14683928Y-9398214D02*
X14683928Y-9198214D01*
X14683928Y-9226786D02*
X14698214Y-9212500D01*
X14726786Y-9198214D01*
X14769643Y-9198214D01*
X14798214Y-9212500D01*
X14812500Y-9241072D01*
X14812500Y-9398214D01*
X14812500Y-9241072D02*
X14826786Y-9212500D01*
X14855357Y-9198214D01*
X14898214Y-9198214D01*
X14926786Y-9212500D01*
X14941071Y-9241072D01*
X14941071Y-9398214D01*
X15526786Y-9083929D02*
X15269643Y-9469643D01*
X15912500Y-9098214D02*
X15941071Y-9098214D01*
X15969643Y-9112500D01*
X15983928Y-9126786D01*
X15998214Y-9155357D01*
X16012500Y-9212500D01*
X16012500Y-9283929D01*
X15998214Y-9341072D01*
X15983928Y-9369643D01*
X15969643Y-9383929D01*
X15941071Y-9398214D01*
X15912500Y-9398214D01*
X15883928Y-9383929D01*
X15869643Y-9369643D01*
X15855357Y-9341072D01*
X15841071Y-9283929D01*
X15841071Y-9212500D01*
X15855357Y-9155357D01*
X15869643Y-9126786D01*
X15883928Y-9112500D01*
X15912500Y-9098214D01*
X16141071Y-9369643D02*
X16155357Y-9383929D01*
X16141071Y-9398214D01*
X16126786Y-9383929D01*
X16141071Y-9369643D01*
X16141071Y-9398214D01*
X16341071Y-9098214D02*
X16369643Y-9098214D01*
X16398214Y-9112500D01*
X16412500Y-9126786D01*
X16426786Y-9155357D01*
X16441071Y-9212500D01*
X16441071Y-9283929D01*
X16426786Y-9341072D01*
X16412500Y-9369643D01*
X16398214Y-9383929D01*
X16369643Y-9398214D01*
X16341071Y-9398214D01*
X16312500Y-9383929D01*
X16298214Y-9369643D01*
X16283928Y-9341072D01*
X16269643Y-9283929D01*
X16269643Y-9212500D01*
X16283928Y-9155357D01*
X16298214Y-9126786D01*
X16312500Y-9112500D01*
X16341071Y-9098214D01*
X16555357Y-9126786D02*
X16569643Y-9112500D01*
X16598214Y-9098214D01*
X16669643Y-9098214D01*
X16698214Y-9112500D01*
X16712500Y-9126786D01*
X16726786Y-9155357D01*
X16726786Y-9183929D01*
X16712500Y-9226786D01*
X16541071Y-9398214D01*
X16726786Y-9398214D01*
X16898214Y-9226786D02*
X16869643Y-9212500D01*
X16855357Y-9198214D01*
X16841071Y-9169643D01*
X16841071Y-9155357D01*
X16855357Y-9126786D01*
X16869643Y-9112500D01*
X16898214Y-9098214D01*
X16955357Y-9098214D01*
X16983928Y-9112500D01*
X16998214Y-9126786D01*
X17012500Y-9155357D01*
X17012500Y-9169643D01*
X16998214Y-9198214D01*
X16983928Y-9212500D01*
X16955357Y-9226786D01*
X16898214Y-9226786D01*
X16869643Y-9241072D01*
X16855357Y-9255357D01*
X16841071Y-9283929D01*
X16841071Y-9341072D01*
X16855357Y-9369643D01*
X16869643Y-9383929D01*
X16898214Y-9398214D01*
X16955357Y-9398214D01*
X16983928Y-9383929D01*
X16998214Y-9369643D01*
X17012500Y-9341072D01*
X17012500Y-9283929D01*
X16998214Y-9255357D01*
X16983928Y-9241072D01*
X16955357Y-9226786D01*
X17126786Y-9098214D02*
X17126786Y-9155357D01*
X17241071Y-9098214D02*
X17241071Y-9155357D01*
X17683928Y-9512500D02*
X17669643Y-9498214D01*
X17641071Y-9455357D01*
X17626786Y-9426786D01*
X17612500Y-9383929D01*
X17598214Y-9312500D01*
X17598214Y-9255357D01*
X17612500Y-9183929D01*
X17626786Y-9141072D01*
X17641071Y-9112500D01*
X17669643Y-9069643D01*
X17683928Y-9055357D01*
X17926786Y-9098214D02*
X17869643Y-9098214D01*
X17841071Y-9112500D01*
X17826786Y-9126786D01*
X17798214Y-9169643D01*
X17783928Y-9226786D01*
X17783928Y-9341072D01*
X17798214Y-9369643D01*
X17812500Y-9383929D01*
X17841071Y-9398214D01*
X17898214Y-9398214D01*
X17926786Y-9383929D01*
X17941071Y-9369643D01*
X17955357Y-9341072D01*
X17955357Y-9269643D01*
X17941071Y-9241072D01*
X17926786Y-9226786D01*
X17898214Y-9212500D01*
X17841071Y-9212500D01*
X17812500Y-9226786D01*
X17798214Y-9241072D01*
X17783928Y-9269643D01*
X18312500Y-9398214D02*
X18312500Y-9098214D01*
X18441071Y-9398214D02*
X18441071Y-9241072D01*
X18426786Y-9212500D01*
X18398214Y-9198214D01*
X18355357Y-9198214D01*
X18326786Y-9212500D01*
X18312500Y-9226786D01*
X18626786Y-9398214D02*
X18598214Y-9383929D01*
X18583928Y-9369643D01*
X18569643Y-9341072D01*
X18569643Y-9255357D01*
X18583928Y-9226786D01*
X18598214Y-9212500D01*
X18626786Y-9198214D01*
X18669643Y-9198214D01*
X18698214Y-9212500D01*
X18712500Y-9226786D01*
X18726786Y-9255357D01*
X18726786Y-9341072D01*
X18712500Y-9369643D01*
X18698214Y-9383929D01*
X18669643Y-9398214D01*
X18626786Y-9398214D01*
X18898214Y-9398214D02*
X18869643Y-9383929D01*
X18855357Y-9355357D01*
X18855357Y-9098214D01*
X19126786Y-9383929D02*
X19098214Y-9398214D01*
X19041071Y-9398214D01*
X19012500Y-9383929D01*
X18998214Y-9355357D01*
X18998214Y-9241072D01*
X19012500Y-9212500D01*
X19041071Y-9198214D01*
X19098214Y-9198214D01*
X19126786Y-9212500D01*
X19141071Y-9241072D01*
X19141071Y-9269643D01*
X18998214Y-9298214D01*
X19255357Y-9383929D02*
X19283928Y-9398214D01*
X19341071Y-9398214D01*
X19369643Y-9383929D01*
X19383928Y-9355357D01*
X19383928Y-9341072D01*
X19369643Y-9312500D01*
X19341071Y-9298214D01*
X19298214Y-9298214D01*
X19269643Y-9283929D01*
X19255357Y-9255357D01*
X19255357Y-9241072D01*
X19269643Y-9212500D01*
X19298214Y-9198214D01*
X19341071Y-9198214D01*
X19369643Y-9212500D01*
X19483928Y-9512500D02*
X19498214Y-9498214D01*
X19526786Y-9455357D01*
X19541071Y-9426786D01*
X19555357Y-9383929D01*
X19569643Y-9312500D01*
X19569643Y-9255357D01*
X19555357Y-9183929D01*
X19541071Y-9141072D01*
X19526786Y-9112500D01*
X19498214Y-9069643D01*
X19483928Y-9055357D01*
X12997500Y-9658500D02*
G75*
G03*
X12997500Y-9658500I-50000J0D01*
G01*
X13441071Y-9794214D02*
X13269643Y-9794214D01*
X13355357Y-9794214D02*
X13355357Y-9494214D01*
X13326786Y-9537072D01*
X13298214Y-9565643D01*
X13269643Y-9579929D01*
X13569643Y-9765643D02*
X13583928Y-9779929D01*
X13569643Y-9794214D01*
X13555357Y-9779929D01*
X13569643Y-9765643D01*
X13569643Y-9794214D01*
X13769643Y-9494214D02*
X13798214Y-9494214D01*
X13826786Y-9508500D01*
X13841071Y-9522786D01*
X13855357Y-9551357D01*
X13869643Y-9608500D01*
X13869643Y-9679929D01*
X13855357Y-9737072D01*
X13841071Y-9765643D01*
X13826786Y-9779929D01*
X13798214Y-9794214D01*
X13769643Y-9794214D01*
X13741071Y-9779929D01*
X13726786Y-9765643D01*
X13712500Y-9737072D01*
X13698214Y-9679929D01*
X13698214Y-9608500D01*
X13712500Y-9551357D01*
X13726786Y-9522786D01*
X13741071Y-9508500D01*
X13769643Y-9494214D01*
X14055357Y-9494214D02*
X14083928Y-9494214D01*
X14112500Y-9508500D01*
X14126786Y-9522786D01*
X14141071Y-9551357D01*
X14155357Y-9608500D01*
X14155357Y-9679929D01*
X14141071Y-9737072D01*
X14126786Y-9765643D01*
X14112500Y-9779929D01*
X14083928Y-9794214D01*
X14055357Y-9794214D01*
X14026786Y-9779929D01*
X14012500Y-9765643D01*
X13998214Y-9737072D01*
X13983928Y-9679929D01*
X13983928Y-9608500D01*
X13998214Y-9551357D01*
X14012500Y-9522786D01*
X14026786Y-9508500D01*
X14055357Y-9494214D01*
X14283928Y-9794214D02*
X14283928Y-9594214D01*
X14283928Y-9622786D02*
X14298214Y-9608500D01*
X14326786Y-9594214D01*
X14369643Y-9594214D01*
X14398214Y-9608500D01*
X14412500Y-9637072D01*
X14412500Y-9794214D01*
X14412500Y-9637072D02*
X14426786Y-9608500D01*
X14455357Y-9594214D01*
X14498214Y-9594214D01*
X14526786Y-9608500D01*
X14541071Y-9637072D01*
X14541071Y-9794214D01*
X14683928Y-9794214D02*
X14683928Y-9594214D01*
X14683928Y-9622786D02*
X14698214Y-9608500D01*
X14726786Y-9594214D01*
X14769643Y-9594214D01*
X14798214Y-9608500D01*
X14812500Y-9637072D01*
X14812500Y-9794214D01*
X14812500Y-9637072D02*
X14826786Y-9608500D01*
X14855357Y-9594214D01*
X14898214Y-9594214D01*
X14926786Y-9608500D01*
X14941071Y-9637072D01*
X14941071Y-9794214D01*
X15526786Y-9479929D02*
X15269643Y-9865643D01*
X15912500Y-9494214D02*
X15941071Y-9494214D01*
X15969643Y-9508500D01*
X15983928Y-9522786D01*
X15998214Y-9551357D01*
X16012500Y-9608500D01*
X16012500Y-9679929D01*
X15998214Y-9737072D01*
X15983928Y-9765643D01*
X15969643Y-9779929D01*
X15941071Y-9794214D01*
X15912500Y-9794214D01*
X15883928Y-9779929D01*
X15869643Y-9765643D01*
X15855357Y-9737072D01*
X15841071Y-9679929D01*
X15841071Y-9608500D01*
X15855357Y-9551357D01*
X15869643Y-9522786D01*
X15883928Y-9508500D01*
X15912500Y-9494214D01*
X16141071Y-9765643D02*
X16155357Y-9779929D01*
X16141071Y-9794214D01*
X16126786Y-9779929D01*
X16141071Y-9765643D01*
X16141071Y-9794214D01*
X16341071Y-9494214D02*
X16369643Y-9494214D01*
X16398214Y-9508500D01*
X16412500Y-9522786D01*
X16426786Y-9551357D01*
X16441071Y-9608500D01*
X16441071Y-9679929D01*
X16426786Y-9737072D01*
X16412500Y-9765643D01*
X16398214Y-9779929D01*
X16369643Y-9794214D01*
X16341071Y-9794214D01*
X16312500Y-9779929D01*
X16298214Y-9765643D01*
X16283928Y-9737072D01*
X16269643Y-9679929D01*
X16269643Y-9608500D01*
X16283928Y-9551357D01*
X16298214Y-9522786D01*
X16312500Y-9508500D01*
X16341071Y-9494214D01*
X16541071Y-9494214D02*
X16726786Y-9494214D01*
X16626786Y-9608500D01*
X16669643Y-9608500D01*
X16698214Y-9622786D01*
X16712500Y-9637072D01*
X16726786Y-9665643D01*
X16726786Y-9737072D01*
X16712500Y-9765643D01*
X16698214Y-9779929D01*
X16669643Y-9794214D01*
X16583928Y-9794214D01*
X16555357Y-9779929D01*
X16541071Y-9765643D01*
X16869643Y-9794214D02*
X16926786Y-9794214D01*
X16955357Y-9779929D01*
X16969643Y-9765643D01*
X16998214Y-9722786D01*
X17012500Y-9665643D01*
X17012500Y-9551357D01*
X16998214Y-9522786D01*
X16983928Y-9508500D01*
X16955357Y-9494214D01*
X16898214Y-9494214D01*
X16869643Y-9508500D01*
X16855357Y-9522786D01*
X16841071Y-9551357D01*
X16841071Y-9622786D01*
X16855357Y-9651357D01*
X16869643Y-9665643D01*
X16898214Y-9679929D01*
X16955357Y-9679929D01*
X16983928Y-9665643D01*
X16998214Y-9651357D01*
X17012500Y-9622786D01*
X17126786Y-9494214D02*
X17126786Y-9551357D01*
X17241071Y-9494214D02*
X17241071Y-9551357D01*
X17683928Y-9908500D02*
X17669643Y-9894214D01*
X17641071Y-9851357D01*
X17626786Y-9822786D01*
X17612500Y-9779929D01*
X17598214Y-9708500D01*
X17598214Y-9651357D01*
X17612500Y-9579929D01*
X17626786Y-9537072D01*
X17641071Y-9508500D01*
X17669643Y-9465643D01*
X17683928Y-9451357D01*
X17841071Y-9622786D02*
X17812500Y-9608500D01*
X17798214Y-9594214D01*
X17783928Y-9565643D01*
X17783928Y-9551357D01*
X17798214Y-9522786D01*
X17812500Y-9508500D01*
X17841071Y-9494214D01*
X17898214Y-9494214D01*
X17926786Y-9508500D01*
X17941071Y-9522786D01*
X17955357Y-9551357D01*
X17955357Y-9565643D01*
X17941071Y-9594214D01*
X17926786Y-9608500D01*
X17898214Y-9622786D01*
X17841071Y-9622786D01*
X17812500Y-9637072D01*
X17798214Y-9651357D01*
X17783928Y-9679929D01*
X17783928Y-9737072D01*
X17798214Y-9765643D01*
X17812500Y-9779929D01*
X17841071Y-9794214D01*
X17898214Y-9794214D01*
X17926786Y-9779929D01*
X17941071Y-9765643D01*
X17955357Y-9737072D01*
X17955357Y-9679929D01*
X17941071Y-9651357D01*
X17926786Y-9637072D01*
X17898214Y-9622786D01*
X18312500Y-9794214D02*
X18312500Y-9494214D01*
X18441071Y-9794214D02*
X18441071Y-9637072D01*
X18426786Y-9608500D01*
X18398214Y-9594214D01*
X18355357Y-9594214D01*
X18326786Y-9608500D01*
X18312500Y-9622786D01*
X18626786Y-9794214D02*
X18598214Y-9779929D01*
X18583928Y-9765643D01*
X18569643Y-9737072D01*
X18569643Y-9651357D01*
X18583928Y-9622786D01*
X18598214Y-9608500D01*
X18626786Y-9594214D01*
X18669643Y-9594214D01*
X18698214Y-9608500D01*
X18712500Y-9622786D01*
X18726786Y-9651357D01*
X18726786Y-9737072D01*
X18712500Y-9765643D01*
X18698214Y-9779929D01*
X18669643Y-9794214D01*
X18626786Y-9794214D01*
X18898214Y-9794214D02*
X18869643Y-9779929D01*
X18855357Y-9751357D01*
X18855357Y-9494214D01*
X19126786Y-9779929D02*
X19098214Y-9794214D01*
X19041071Y-9794214D01*
X19012500Y-9779929D01*
X18998214Y-9751357D01*
X18998214Y-9637072D01*
X19012500Y-9608500D01*
X19041071Y-9594214D01*
X19098214Y-9594214D01*
X19126786Y-9608500D01*
X19141071Y-9637072D01*
X19141071Y-9665643D01*
X18998214Y-9694214D01*
X19255357Y-9779929D02*
X19283928Y-9794214D01*
X19341071Y-9794214D01*
X19369643Y-9779929D01*
X19383928Y-9751357D01*
X19383928Y-9737072D01*
X19369643Y-9708500D01*
X19341071Y-9694214D01*
X19298214Y-9694214D01*
X19269643Y-9679929D01*
X19255357Y-9651357D01*
X19255357Y-9637072D01*
X19269643Y-9608500D01*
X19298214Y-9594214D01*
X19341071Y-9594214D01*
X19369643Y-9608500D01*
X19483928Y-9908500D02*
X19498214Y-9894214D01*
X19526786Y-9851357D01*
X19541071Y-9822786D01*
X19555357Y-9779929D01*
X19569643Y-9708500D01*
X19569643Y-9651357D01*
X19555357Y-9579929D01*
X19541071Y-9537072D01*
X19526786Y-9508500D01*
X19498214Y-9465643D01*
X19483928Y-9451357D01*
X12942500Y-9999500D02*
X12942500Y-10109500D01*
X12887500Y-10054500D02*
X12997500Y-10054500D01*
X13441071Y-10190214D02*
X13269643Y-10190214D01*
X13355357Y-10190214D02*
X13355357Y-9890214D01*
X13326786Y-9933072D01*
X13298214Y-9961643D01*
X13269643Y-9975929D01*
X13569643Y-10161643D02*
X13583928Y-10175929D01*
X13569643Y-10190214D01*
X13555357Y-10175929D01*
X13569643Y-10161643D01*
X13569643Y-10190214D01*
X13869643Y-10190214D02*
X13698214Y-10190214D01*
X13783928Y-10190214D02*
X13783928Y-9890214D01*
X13755357Y-9933072D01*
X13726786Y-9961643D01*
X13698214Y-9975929D01*
X14055357Y-9890214D02*
X14083928Y-9890214D01*
X14112500Y-9904500D01*
X14126786Y-9918786D01*
X14141071Y-9947357D01*
X14155357Y-10004500D01*
X14155357Y-10075929D01*
X14141071Y-10133072D01*
X14126786Y-10161643D01*
X14112500Y-10175929D01*
X14083928Y-10190214D01*
X14055357Y-10190214D01*
X14026786Y-10175929D01*
X14012500Y-10161643D01*
X13998214Y-10133072D01*
X13983928Y-10075929D01*
X13983928Y-10004500D01*
X13998214Y-9947357D01*
X14012500Y-9918786D01*
X14026786Y-9904500D01*
X14055357Y-9890214D01*
X14283928Y-10190214D02*
X14283928Y-9990214D01*
X14283928Y-10018786D02*
X14298214Y-10004500D01*
X14326786Y-9990214D01*
X14369643Y-9990214D01*
X14398214Y-10004500D01*
X14412500Y-10033072D01*
X14412500Y-10190214D01*
X14412500Y-10033072D02*
X14426786Y-10004500D01*
X14455357Y-9990214D01*
X14498214Y-9990214D01*
X14526786Y-10004500D01*
X14541071Y-10033072D01*
X14541071Y-10190214D01*
X14683928Y-10190214D02*
X14683928Y-9990214D01*
X14683928Y-10018786D02*
X14698214Y-10004500D01*
X14726786Y-9990214D01*
X14769643Y-9990214D01*
X14798214Y-10004500D01*
X14812500Y-10033072D01*
X14812500Y-10190214D01*
X14812500Y-10033072D02*
X14826786Y-10004500D01*
X14855357Y-9990214D01*
X14898214Y-9990214D01*
X14926786Y-10004500D01*
X14941071Y-10033072D01*
X14941071Y-10190214D01*
X15526786Y-9875929D02*
X15269643Y-10261643D01*
X15912500Y-9890214D02*
X15941071Y-9890214D01*
X15969643Y-9904500D01*
X15983928Y-9918786D01*
X15998214Y-9947357D01*
X16012500Y-10004500D01*
X16012500Y-10075929D01*
X15998214Y-10133072D01*
X15983928Y-10161643D01*
X15969643Y-10175929D01*
X15941071Y-10190214D01*
X15912500Y-10190214D01*
X15883928Y-10175929D01*
X15869643Y-10161643D01*
X15855357Y-10133072D01*
X15841071Y-10075929D01*
X15841071Y-10004500D01*
X15855357Y-9947357D01*
X15869643Y-9918786D01*
X15883928Y-9904500D01*
X15912500Y-9890214D01*
X16141071Y-10161643D02*
X16155357Y-10175929D01*
X16141071Y-10190214D01*
X16126786Y-10175929D01*
X16141071Y-10161643D01*
X16141071Y-10190214D01*
X16341071Y-9890214D02*
X16369643Y-9890214D01*
X16398214Y-9904500D01*
X16412500Y-9918786D01*
X16426786Y-9947357D01*
X16441071Y-10004500D01*
X16441071Y-10075929D01*
X16426786Y-10133072D01*
X16412500Y-10161643D01*
X16398214Y-10175929D01*
X16369643Y-10190214D01*
X16341071Y-10190214D01*
X16312500Y-10175929D01*
X16298214Y-10161643D01*
X16283928Y-10133072D01*
X16269643Y-10075929D01*
X16269643Y-10004500D01*
X16283928Y-9947357D01*
X16298214Y-9918786D01*
X16312500Y-9904500D01*
X16341071Y-9890214D01*
X16698214Y-9990214D02*
X16698214Y-10190214D01*
X16626786Y-9875929D02*
X16555357Y-10090214D01*
X16741071Y-10090214D01*
X16826786Y-9890214D02*
X17012500Y-9890214D01*
X16912500Y-10004500D01*
X16955357Y-10004500D01*
X16983928Y-10018786D01*
X16998214Y-10033072D01*
X17012500Y-10061643D01*
X17012500Y-10133072D01*
X16998214Y-10161643D01*
X16983928Y-10175929D01*
X16955357Y-10190214D01*
X16869643Y-10190214D01*
X16841071Y-10175929D01*
X16826786Y-10161643D01*
X17126786Y-9890214D02*
X17126786Y-9947357D01*
X17241071Y-9890214D02*
X17241071Y-9947357D01*
X17683928Y-10304500D02*
X17669643Y-10290214D01*
X17641071Y-10247357D01*
X17626786Y-10218786D01*
X17612500Y-10175929D01*
X17598214Y-10104500D01*
X17598214Y-10047357D01*
X17612500Y-9975929D01*
X17626786Y-9933072D01*
X17641071Y-9904500D01*
X17669643Y-9861643D01*
X17683928Y-9847357D01*
X17783928Y-9918786D02*
X17798214Y-9904500D01*
X17826786Y-9890214D01*
X17898214Y-9890214D01*
X17926786Y-9904500D01*
X17941071Y-9918786D01*
X17955357Y-9947357D01*
X17955357Y-9975929D01*
X17941071Y-10018786D01*
X17769643Y-10190214D01*
X17955357Y-10190214D01*
X18312500Y-10190214D02*
X18312500Y-9890214D01*
X18441071Y-10190214D02*
X18441071Y-10033072D01*
X18426786Y-10004500D01*
X18398214Y-9990214D01*
X18355357Y-9990214D01*
X18326786Y-10004500D01*
X18312500Y-10018786D01*
X18626786Y-10190214D02*
X18598214Y-10175929D01*
X18583928Y-10161643D01*
X18569643Y-10133072D01*
X18569643Y-10047357D01*
X18583928Y-10018786D01*
X18598214Y-10004500D01*
X18626786Y-9990214D01*
X18669643Y-9990214D01*
X18698214Y-10004500D01*
X18712500Y-10018786D01*
X18726786Y-10047357D01*
X18726786Y-10133072D01*
X18712500Y-10161643D01*
X18698214Y-10175929D01*
X18669643Y-10190214D01*
X18626786Y-10190214D01*
X18898214Y-10190214D02*
X18869643Y-10175929D01*
X18855357Y-10147357D01*
X18855357Y-9890214D01*
X19126786Y-10175929D02*
X19098214Y-10190214D01*
X19041071Y-10190214D01*
X19012500Y-10175929D01*
X18998214Y-10147357D01*
X18998214Y-10033072D01*
X19012500Y-10004500D01*
X19041071Y-9990214D01*
X19098214Y-9990214D01*
X19126786Y-10004500D01*
X19141071Y-10033072D01*
X19141071Y-10061643D01*
X18998214Y-10090214D01*
X19255357Y-10175929D02*
X19283928Y-10190214D01*
X19341071Y-10190214D01*
X19369643Y-10175929D01*
X19383928Y-10147357D01*
X19383928Y-10133072D01*
X19369643Y-10104500D01*
X19341071Y-10090214D01*
X19298214Y-10090214D01*
X19269643Y-10075929D01*
X19255357Y-10047357D01*
X19255357Y-10033072D01*
X19269643Y-10004500D01*
X19298214Y-9990214D01*
X19341071Y-9990214D01*
X19369643Y-10004500D01*
X19483928Y-10304500D02*
X19498214Y-10290214D01*
X19526786Y-10247357D01*
X19541071Y-10218786D01*
X19555357Y-10175929D01*
X19569643Y-10104500D01*
X19569643Y-10047357D01*
X19555357Y-9975929D01*
X19541071Y-9933072D01*
X19526786Y-9904500D01*
X19498214Y-9861643D01*
X19483928Y-9847357D01*
M02*
