%FSLAX45Y45*%
G04 Gerber Fmt 4.5, Leading zero omitted, Abs format (unit mm)*
G04 Created by KiCad (PCBNEW (5.1.7)-1) date 2022-11-01 20:21:28*
%MOMM*%
%LPD*%
G01*
G04 APERTURE LIST*
%TA.AperFunction,Profile*%
%ADD10C,0.050000*%
%TD*%
%ADD11C,0.200000*%
%ADD12C,0.300000*%
G04 APERTURE END LIST*
D10*
X13000000Y-8300000D02*
X13000000Y-6700000D01*
X15700000Y-8300000D02*
X13000000Y-8300000D01*
X15700000Y-6700000D02*
X15700000Y-8300000D01*
X13000000Y-6700000D02*
X15700000Y-6700000D01*
D11*
D12*
X13283928Y-8768214D02*
X13283928Y-8468214D01*
X13355357Y-8468214D01*
X13398214Y-8482500D01*
X13426786Y-8511072D01*
X13441071Y-8539643D01*
X13455357Y-8596786D01*
X13455357Y-8639643D01*
X13441071Y-8696786D01*
X13426786Y-8725357D01*
X13398214Y-8753929D01*
X13355357Y-8768214D01*
X13283928Y-8768214D01*
X13583928Y-8768214D02*
X13583928Y-8568214D01*
X13583928Y-8625357D02*
X13598214Y-8596786D01*
X13612500Y-8582500D01*
X13641071Y-8568214D01*
X13669643Y-8568214D01*
X13769643Y-8768214D02*
X13769643Y-8568214D01*
X13769643Y-8468214D02*
X13755357Y-8482500D01*
X13769643Y-8496786D01*
X13783928Y-8482500D01*
X13769643Y-8468214D01*
X13769643Y-8496786D01*
X13955357Y-8768214D02*
X13926786Y-8753929D01*
X13912500Y-8725357D01*
X13912500Y-8468214D01*
X14112500Y-8768214D02*
X14083928Y-8753929D01*
X14069643Y-8725357D01*
X14069643Y-8468214D01*
X14455357Y-8768214D02*
X14455357Y-8468214D01*
X14555357Y-8682500D01*
X14655357Y-8468214D01*
X14655357Y-8768214D01*
X14926786Y-8768214D02*
X14926786Y-8611072D01*
X14912500Y-8582500D01*
X14883928Y-8568214D01*
X14826786Y-8568214D01*
X14798214Y-8582500D01*
X14926786Y-8753929D02*
X14898214Y-8768214D01*
X14826786Y-8768214D01*
X14798214Y-8753929D01*
X14783928Y-8725357D01*
X14783928Y-8696786D01*
X14798214Y-8668214D01*
X14826786Y-8653929D01*
X14898214Y-8653929D01*
X14926786Y-8639643D01*
X15069643Y-8568214D02*
X15069643Y-8868214D01*
X15069643Y-8582500D02*
X15098214Y-8568214D01*
X15155357Y-8568214D01*
X15183928Y-8582500D01*
X15198214Y-8596786D01*
X15212500Y-8625357D01*
X15212500Y-8711072D01*
X15198214Y-8739643D01*
X15183928Y-8753929D01*
X15155357Y-8768214D01*
X15098214Y-8768214D01*
X15069643Y-8753929D01*
X15341071Y-8739643D02*
X15355357Y-8753929D01*
X15341071Y-8768214D01*
X15326786Y-8753929D01*
X15341071Y-8739643D01*
X15341071Y-8768214D01*
X15341071Y-8582500D02*
X15355357Y-8596786D01*
X15341071Y-8611072D01*
X15326786Y-8596786D01*
X15341071Y-8582500D01*
X15341071Y-8611072D01*
M02*
